<svg version="1.1" width="200.55794" height="63.796535" sodipodi:docname="underpin_200_white.svg" inkscape:version="1.3 (0e150ed6c4, 2023-07-21)" xmlns:inkscape="http://www.inkscape.org/namespaces/inkscape" xmlns:sodipodi="http://sodipodi.sourceforge.net/DTD/sodipodi-0.dtd" xmlns="http://www.w3.org/2000/svg" xmlns:svg="http://www.w3.org/2000/svg">
  <defs id="defs117" />
  <sodipodi:namedview
    id="namedview117"
    pagecolor="#ffffff"
    bordercolor="#111111"
    borderopacity="1"
    inkscape:showpageshadow="0"
    inkscape:pageopacity="0"
    inkscape:pagecheckerboard="1"
    inkscape:deskcolor="#d1d1d1"
    inkscape:zoom="6.504"
    inkscape:cx="105.39668"
    inkscape:cy="30.212177"
    inkscape:window-width="1920"
    inkscape:window-height="1009"
    inkscape:window-x="3832"
    inkscape:window-y="1063"
    inkscape:window-maximized="1"
    inkscape:current-layer="svg117"
    showgrid="false"
  />
  <g id="g6" transform="translate(0.55812889,0.55799565)">
    <path d="m 78.21748,0.17959558 c 0.701006,0 1.402013,0 2.124262,0 0,20.67969042 0,41.35937942 0,62.66572642 -0.701006,0 -1.402013,0 -2.124262,0 0,-20.679689 0,-41.359379 0,-62.66572642 z" fill="#242424" id="path11" style="fill: #ffffff; fill-opacity: 1; stroke: none; stroke-width: 0.532914; stroke-dasharray: none; stroke-opacity: 1" />
    <text xml:space="preserve" style="font-size: 25.4911px; fill: #ffffff; fill-opacity: 1; stroke: none; stroke-width: 0.532914; stroke-dasharray: none; stroke-opacity: 1" x="86.459862" y="24.727728" id="text117">
      <tspan sodipodi:role="line" id="tspan117" x="86.459862" y="24.727728" style="fill: #ffffff; fill-opacity: 1; stroke: none; stroke-width: 0.532914">Underpin</tspan>
      <tspan sodipodi:role="line" x="86.459862" y="56.591602" id="tspan118" style="fill: #ffffff; fill-opacity: 1; stroke: none; stroke-width: 0.532914">Photos</tspan>
    </text>
    <g id="g1" transform="matrix(0.53106548,0,0,0.53106548,-17.334459,-101.25391)" style="fill: none; fill-opacity: 1; stroke: #ffffff; stroke-width: 3.13854; stroke-dasharray: none; stroke-opacity: 1">
      <path
        style="fill: none; fill-opacity: 1; stroke: #ffffff; stroke-width: 3.13854; stroke-linecap: round; stroke-linejoin: round; stroke-dasharray: none; stroke-opacity: 1"
        d="m 161.90037,267.68143 c -19.52645,7.38007 -22.90898,-8.45634 -23.52399,-9.68635 -0.615,-1.23001 -5.22755,-13.68389 -2.30627,-40.89791 2.92128,-27.21402 27.82903,-25.90714 27.82903,-25.90714 8.91759,0.46126 13.45326,9.45572 13.45326,9.45572"
        id="path121"
        sodipodi:nodetypes="csscc"
      />
      <path style="fill: none; fill-opacity: 1; stroke: #ffffff; stroke-width: 3.13854; stroke-linecap: round; stroke-linejoin: round; stroke-dasharray: none; stroke-opacity: 1" d="m 163.89914,286.90037 c 0,0 -12.14637,0.46125 -24.13899,11.07011 -11.99262,10.60886 -14.45265,9.5326 -14.45265,9.5326" id="path122" />
      <path style="fill: none; fill-opacity: 1; stroke: #ffffff; stroke-width: 3.13854; stroke-linecap: round; stroke-linejoin: round; stroke-dasharray: none; stroke-opacity: 1" d="m 154.05904,269.9877 c 0,0 1.84502,17.83518 -3.38253,20.60271" id="path123" />
      <path style="fill: none; fill-opacity: 1; stroke: #ffffff; stroke-width: 3.13854; stroke-linecap: round; stroke-linejoin: round; stroke-dasharray: none; stroke-opacity: 1" d="m 98.149438,274.93114 c 0,0 5.227552,7.11372 4.920052,33.24002" id="path125" />
      <path style="fill: none; fill-opacity: 1; stroke: #ffffff; stroke-width: 3.13854; stroke-linecap: round; stroke-linejoin: round; stroke-dasharray: none; stroke-opacity: 1" d="m 79.182042,260.60885 -1.99877,3.99755 c 5.668318,3.43378 2.920522,3.606 4.595219,7.03979 4.177125,5.61768 8.969417,7.90227 11.856195,11.10289 l 7.072574,1.23001" id="path126" sodipodi:nodetypes="ccccc" />
      <path
        style="fill: none; fill-opacity: 1; stroke: #ffffff; stroke-width: 3.13854; stroke-linecap: round; stroke-linejoin: round; stroke-dasharray: none; stroke-opacity: 1"
        d="m 127.99816,306.50369 c 0,0 0.23388,-1.30754 -0.2082,-3.98777 -0.49079,-2.97551 -1.90944,-7.16909 -5.71124,-11.61801 -4.11975,-4.82099 -5.69093,-13.23997 -6.28045,-19.58757 -0.44453,-4.78651 -2.50525,-9.04752 -2.50525,-9.04752 0,0 -10.58699,-14.8766 -10.74074,-15.95286 -0.15376,-1.07626 -9.225097,-15.06765 -9.225097,-15.06765"
        id="path128"
        sodipodi:nodetypes="cssscsc"
      />
      <rect style="fill: none; fill-opacity: 1; stroke: #ffffff; stroke-width: 3.13854; stroke-linecap: round; stroke-linejoin: round; stroke-dasharray: none; stroke-opacity: 1" id="rect128" width="14.985295" height="45.579975" x="119.56435" y="222.46143" ry="1.5256832" />
      <path style="fill: none; fill-opacity: 1; stroke: #ffffff; stroke-width: 3.13854; stroke-linecap: round; stroke-linejoin: round; stroke-dasharray: none; stroke-opacity: 1" d="m 93.402601,231.27663 -5.884003,1.59894 7.175438,21.96119 -15.329345,5.65338" id="path133" sodipodi:nodetypes="cccc" />
      <rect style="fill: none; fill-opacity: 1; stroke: #ffffff; stroke-width: 3.13854; stroke-linecap: round; stroke-linejoin: round; stroke-dasharray: none; stroke-opacity: 1" id="rect136" width="9.4585314" height="32.180752" x="64.796379" y="230.91864" ry="0.68482924" />
      <rect style="fill: none; fill-opacity: 1; stroke: #ffffff; stroke-width: 3.13854; stroke-linecap: round; stroke-linejoin: round; stroke-dasharray: none; stroke-opacity: 1" id="rect137" width="2.8266876" height="28.484314" x="61.860973" y="232.9843" ry="0.24994792" />
      <rect style="fill: none; fill-opacity: 1; stroke: #ffffff; stroke-width: 3.13854; stroke-linecap: round; stroke-linejoin: round; stroke-dasharray: none; stroke-opacity: 1" id="rect138" width="28.266874" height="36.529495" x="33.159218" y="228.63554" ry="0.24994792" />
      <path style="fill: none; fill-opacity: 1; stroke: #ffffff; stroke-width: 3.13854; stroke-linecap: round; stroke-linejoin: round; stroke-dasharray: none; stroke-opacity: 1" d="m 117.61993,225.39975 1.46064,-7.84133 12.22325,-1.84502 1.61439,6.38069" id="path138" sodipodi:nodetypes="cccc" />
      <path style="fill: none; fill-opacity: 1; stroke: #ffffff; stroke-width: 3.13854; stroke-linecap: round; stroke-linejoin: round; stroke-dasharray: none; stroke-opacity: 1" d="m 134.39203,257.41059 c 0,0 4.60615,32.42839 8.44993,37.42531" id="path139" sodipodi:nodetypes="cc" />
      <path style="fill: none; fill-opacity: 1; stroke: #ffffff; stroke-width: 3.13854; stroke-linecap: round; stroke-linejoin: round; stroke-dasharray: none; stroke-opacity: 1" d="M 74.415744,232.77983 H 87.945879" id="path142" sodipodi:nodetypes="cc" />
      <path style="fill: none; fill-opacity: 1; stroke: #ffffff; stroke-width: 3.13854; stroke-linecap: round; stroke-linejoin: round; stroke-dasharray: none; stroke-opacity: 1" d="m 74.569496,261.83886 h 3.61316" id="path143" sodipodi:nodetypes="cc" />
      <path style="fill: none; fill-opacity: 1; stroke: #ffffff; stroke-width: 3.13854; stroke-linecap: round; stroke-linejoin: round; stroke-dasharray: none; stroke-opacity: 1" d="m 94.557196,232.5492 12.838254,-0.0769" id="path144" sodipodi:nodetypes="cc" />
      <path style="fill: none; fill-opacity: 1; stroke: #ffffff; stroke-width: 3.13854; stroke-linecap: round; stroke-linejoin: round; stroke-dasharray: none; stroke-opacity: 1" d="m 84.332718,232.93358 v 25.67651" id="path145" />
      <path style="fill: none; fill-opacity: 1; stroke: #ffffff; stroke-width: 3.13854; stroke-linecap: round; stroke-linejoin: round; stroke-dasharray: none; stroke-opacity: 1" d="m 91.482165,255.84256 0.07688,-10.22449" id="path146" sodipodi:nodetypes="cc" />
      <path style="fill: none; fill-opacity: 1; stroke: #ffffff; stroke-width: 3.13854; stroke-linecap: round; stroke-linejoin: round; stroke-dasharray: none; stroke-opacity: 1" d="m 119.54183,225.09224 -11.83888,4.84318 v 23.98524" id="path147" sodipodi:nodetypes="ccc" />
      <path style="fill: none; fill-opacity: 1; stroke: #ffffff; stroke-width: 3.13854; stroke-linecap: round; stroke-linejoin: round; stroke-dasharray: none; stroke-opacity: 1" d="m 119.69557,265.99016 -5.61193,-1.99877" id="path148" sodipodi:nodetypes="cc" />
    </g>
  </g>
</svg>
